<svg xmlns="http://www.w3.org/2000/svg" xmlns:xlink="http://www.w3.org/1999/xlink" id="Layer_1" x="0px" y="0px" viewBox="0 0 246.2 63.2" style="enable-background:new 0 0 246.2 63.2;" xml:space="preserve"> <style type="text/css"> .st0{fill:#F99B1C;} </style> <g id="Layer_2_1_"> <g id="Layer_1-2"> <polygon class="st0" points="46.7,48.4 53,48.4 27.4,63.2 0,47.4 0,15.8 27.4,0 53,14.8 46.7,14.8 27.4,3.7 3.2,17.6 3.2,45.6 27.4,59.5 "></polygon> <polygon class="st0" points="11.7,22.8 26.8,14.3 41.6,23.2 41.4,40.4 26.3,48.9 11.4,40 "></polygon> <path class="st0" d="M59.8,22.7v2.5H52v5.4h6.1v2.5H52v8.1h-3V22.7H59.8z"></path> <path class="st0" d="M73.5,22.7v2.5h-7.8v5.4h6.1v2.5h-6.1v8.1h-3V22.7H73.5z"></path> <path class="st0" d="M76.6,27c0.8-1.4,2-2.6,3.4-3.3c3.1-1.7,6.9-1.6,10,0.2c1.5,1,2.7,2.4,3.3,4.1h-3.6c-0.4-0.9-1.1-1.7-2-2.2 c-0.9-0.5-2-0.7-3-0.7c-1.1,0-2.3,0.3-3.3,0.8c-1,0.6-1.7,1.4-2.2,2.4c-0.6,1.1-0.8,2.3-0.8,3.6c0,1.2,0.3,2.5,0.8,3.6 c0.5,1,1.3,1.8,2.2,2.4c1,0.6,2.1,0.9,3.3,0.8c1,0,2.1-0.2,3-0.7c0.9-0.5,1.6-1.3,2-2.2h3.6c-0.6,1.7-1.8,3.1-3.3,4.1 c-1.6,1-3.4,1.5-5.2,1.4c-1.7,0-3.3-0.4-4.8-1.2c-1.4-0.8-2.6-1.9-3.4-3.4C74.9,33.7,74.9,30.1,76.6,27L76.6,27z"></path> <path class="st0" d="M111.6,22.7v18.5h-3v-8.1h-8.7v8.1h-3V22.7h3v7.9h8.7v-7.9H111.6z"></path> <path class="st0" d="M126.7,37.4H119l-1.3,3.8h-3.2l6.6-18.5h3.5l6.6,18.5H128L126.7,37.4z M125.8,34.9l-3-8.6l-3,8.6H125.8z"></path> <path class="st0" d="M137.1,22.7v18.5h-3V22.7H137.1z"></path> <path class="st0" d="M156.3,41.2h-3l-9.1-13.8v13.8h-3V22.7h3l9.1,13.8V22.7h3V41.2z"></path> <path class="st0" d="M180.8,22.7l-6.1,11.8v6.7h-3v-6.7l-6.2-11.8h3.4l4.3,9.1l4.3-9.1H180.8z"></path> <path class="st0" d="M186.3,22.7v18.5h-3V22.7H186.3z"></path> <path class="st0" d="M207.1,38.7h6.2v2.4H204V22.7h3L207.1,38.7z"></path> <path class="st0" d="M192.8,25.1v5.4h6.4V33h-6.4v5.7h7.2v2.5h-10.2V22.7h10.2v2.5H192.8z"></path> <path class="st0" d="M227.2,23.8c1.4,0.7,2.6,1.8,3.4,3.2c0.8,1.5,1.3,3.2,1.2,4.9c0,1.7-0.4,3.4-1.2,4.9c-0.8,1.4-2,2.5-3.4,3.2 c-1.6,0.8-3.4,1.1-5.2,1.1h-6V22.7h6C223.8,22.7,225.6,23,227.2,23.8z M227,36.9c1.2-1.4,1.8-3.1,1.7-4.9c0.1-1.8-0.5-3.6-1.7-5 c-1.3-1.3-3.2-1.9-5-1.8h-3v13.5h3C223.8,38.8,225.6,38.2,227,36.9z"></path> <path class="st0" d="M236.5,40.7c-0.9-0.4-1.7-1-2.3-1.8c-0.6-0.8-0.9-1.8-0.9-2.8h3.2c0.1,0.8,0.4,1.5,1,2 c0.7,0.5,1.5,0.8,2.4,0.8c0.9,0,1.7-0.2,2.4-0.8c0.6-0.5,0.9-1.2,0.9-2c0-0.6-0.2-1.1-0.6-1.5c-0.4-0.4-0.8-0.7-1.4-0.9 c-0.8-0.3-1.5-0.5-2.3-0.7c-1-0.3-2-0.6-2.9-1c-0.8-0.3-1.4-0.9-1.9-1.5c-0.6-0.8-0.8-1.8-0.8-2.8c0-1,0.3-2,0.8-2.8 c0.5-0.8,1.3-1.4,2.2-1.8c1-0.4,2.2-0.7,3.3-0.6c1.6-0.1,3.1,0.4,4.4,1.3c1.1,0.9,1.8,2.2,1.9,3.7h-3.4c-0.1-0.7-0.4-1.3-1-1.7 c-0.7-0.5-1.5-0.7-2.3-0.7c-0.8,0-1.5,0.2-2.1,0.7c-0.6,0.5-0.9,1.2-0.8,1.9c0,0.5,0.2,1,0.6,1.4c0.4,0.4,0.8,0.7,1.3,0.9 c0.7,0.3,1.4,0.5,2.2,0.7c1,0.3,2,0.6,3,1c0.8,0.3,1.5,0.9,2,1.6c0.6,0.8,0.9,1.8,0.8,2.8c0,0.9-0.3,1.9-0.8,2.7 c-0.5,0.9-1.3,1.6-2.2,2c-1.1,0.5-2.2,0.8-3.4,0.8C238.8,41.4,237.6,41.1,236.5,40.7z"></path> </g> </g> </svg>