<svg width="316" height="67" viewBox="0 0 316 67" fill="none" xmlns="http://www.w3.org/2000/svg">
<path d="M87.6656 24.2413V20.013H109.881V24.2413H101.275V47.8571H96.2717V24.2413H87.6656Z" fill="#084886"/>
<path d="M110.055 47.8571V26.974H114.827V30.4545H115.044C115.425 29.2491 116.078 28.32 117.002 27.6674C117.936 27.0057 119.001 26.6749 120.197 26.6749C120.469 26.6749 120.773 26.6885 121.108 26.7157C121.453 26.7338 121.738 26.7656 121.965 26.8109V31.3383C121.756 31.2658 121.425 31.2023 120.972 31.1479C120.528 31.0845 120.098 31.0528 119.681 31.0528C118.783 31.0528 117.977 31.2476 117.261 31.6374C116.554 32.0181 115.996 32.5483 115.588 33.2281C115.18 33.9079 114.976 34.6919 114.976 35.5802V47.8571H110.055Z" fill="#084886"/>
<path d="M129.147 48.2786C127.824 48.2786 126.632 48.0429 125.571 47.5716C124.52 47.0912 123.686 46.3843 123.07 45.4507C122.463 44.5171 122.159 43.366 122.159 41.9974C122.159 40.8191 122.376 39.8447 122.811 39.0743C123.247 38.3038 123.84 37.6875 124.593 37.2252C125.345 36.763 126.192 36.414 127.135 36.1784C128.087 35.9336 129.07 35.7569 130.085 35.6481C131.309 35.5212 132.301 35.4079 133.063 35.3082C133.824 35.1995 134.377 35.0363 134.721 34.8188C135.075 34.5922 135.252 34.2432 135.252 33.7719V33.6903C135.252 32.6661 134.948 31.873 134.341 31.3111C133.733 30.7491 132.859 30.4681 131.717 30.4681C130.511 30.4681 129.555 30.731 128.848 31.2567C128.15 31.7824 127.679 32.4033 127.434 33.1193L122.839 32.4667C123.201 31.1978 123.799 30.1373 124.633 29.2853C125.467 28.4242 126.487 27.7807 127.692 27.3547C128.898 26.9196 130.23 26.7021 131.69 26.7021C132.696 26.7021 133.697 26.8199 134.694 27.0556C135.691 27.2913 136.602 27.681 137.427 28.2248C138.252 28.7596 138.913 29.4892 139.412 30.4138C139.919 31.3383 140.173 32.4939 140.173 33.8807V47.8571H135.442V44.9884H135.279C134.98 45.5685 134.558 46.1124 134.014 46.6199C133.48 47.1184 132.804 47.5218 131.989 47.8299C131.182 48.1291 130.235 48.2786 129.147 48.2786ZM130.425 44.6621C131.413 44.6621 132.27 44.4673 132.995 44.0775C133.72 43.6787 134.277 43.153 134.667 42.5004C135.066 41.8478 135.265 41.1363 135.265 40.3659V37.905C135.111 38.0319 134.848 38.1498 134.477 38.2585C134.114 38.3673 133.706 38.4625 133.253 38.544C132.8 38.6256 132.351 38.6981 131.907 38.7616C131.463 38.825 131.078 38.8794 130.751 38.9247C130.017 39.0244 129.36 39.1876 128.78 39.4142C128.2 39.6408 127.742 39.958 127.407 40.3659C127.071 40.7647 126.904 41.2813 126.904 41.9158C126.904 42.8222 127.235 43.5065 127.896 43.9687C128.558 44.431 129.401 44.6621 130.425 44.6621Z" fill="#084886"/>
<path d="M152.508 48.265C150.424 48.265 148.634 47.8073 147.138 46.8918C145.652 45.9764 144.505 44.712 143.698 43.0986C142.901 41.4762 142.502 39.609 142.502 37.4972C142.502 35.3762 142.91 33.5045 143.726 31.8821C144.541 30.2506 145.692 28.9817 147.179 28.0753C148.674 27.1598 150.442 26.7021 152.481 26.7021C154.176 26.7021 155.676 27.0148 156.981 27.6402C158.296 28.2566 159.343 29.1312 160.122 30.2642C160.902 31.3881 161.346 32.7024 161.454 34.207H156.75C156.56 33.2009 156.107 32.3625 155.391 31.6918C154.684 31.012 153.737 30.6721 152.549 30.6721C151.543 30.6721 150.659 30.944 149.898 31.4878C149.137 32.0226 148.543 32.793 148.117 33.7991C147.7 34.8052 147.492 36.0107 147.492 37.4156C147.492 38.8386 147.7 40.0622 148.117 41.0864C148.534 42.1016 149.119 42.8856 149.871 43.4385C150.632 43.9823 151.525 44.2543 152.549 44.2543C153.274 44.2543 153.922 44.1183 154.493 43.8464C155.074 43.5654 155.558 43.1621 155.948 42.6364C156.338 42.1107 156.605 41.4717 156.75 40.7194H161.454C161.337 42.1968 160.902 43.5065 160.149 44.6485C159.397 45.7815 158.373 46.6698 157.077 47.3133C155.781 47.9478 154.258 48.265 152.508 48.265Z" fill="#084886"/>
<path d="M173.018 48.265C170.924 48.265 169.116 47.83 167.593 46.9598C166.08 46.0806 164.915 44.8389 164.099 43.2346C163.284 41.6212 162.876 39.7223 162.876 37.5379C162.876 35.3898 163.284 33.5045 164.099 31.8821C164.924 30.2506 166.075 28.9817 167.553 28.0753C169.03 27.1598 170.766 26.7021 172.76 26.7021C174.047 26.7021 175.261 26.9106 176.403 27.3275C177.555 27.7354 178.57 28.3699 179.449 29.2309C180.337 30.092 181.035 31.1887 181.543 32.5211C182.05 33.8444 182.304 35.4215 182.304 37.2524V38.7616H165.187V35.4442H177.586C177.577 34.5016 177.373 33.6631 176.974 32.929C176.576 32.1857 176.018 31.6011 175.302 31.1751C174.595 30.7491 173.77 30.5361 172.828 30.5361C171.822 30.5361 170.938 30.7808 170.177 31.2703C169.415 31.7507 168.822 32.3851 168.396 33.1737C167.979 33.9532 167.766 34.8097 167.757 35.7433V38.6392C167.757 39.8538 167.979 40.8961 168.423 41.7662C168.867 42.6273 169.488 43.289 170.285 43.7512C171.083 44.2044 172.017 44.431 173.086 44.431C173.802 44.431 174.45 44.3313 175.03 44.1319C175.61 43.9234 176.113 43.6198 176.539 43.221C176.965 42.8222 177.287 42.3282 177.505 41.739L182.1 42.2557C181.81 43.4702 181.257 44.5307 180.441 45.4371C179.635 46.3344 178.601 47.0323 177.342 47.5308C176.082 48.0203 174.641 48.265 173.018 48.265Z" fill="#084886"/>
<path d="M197.44 35.6209V47.8571H192.519V26.974H197.223V30.5225H197.468C197.948 29.3533 198.714 28.4242 199.765 27.7354C200.826 27.0465 202.135 26.7021 203.694 26.7021C205.136 26.7021 206.391 27.0103 207.46 27.6266C208.539 28.243 209.373 29.1358 209.962 30.305C210.56 31.4742 210.855 32.8927 210.846 34.5605V47.8571H205.924V35.3218C205.924 33.926 205.562 32.8338 204.836 32.0453C204.12 31.2567 203.128 30.8624 201.859 30.8624C200.998 30.8624 200.232 31.0528 199.561 31.4334C198.9 31.8051 198.378 32.3444 197.998 33.0513C197.626 33.7583 197.44 34.6149 197.44 35.6209Z" fill="#084886"/>
<path d="M220.894 24.2413V20.013H243.109V24.2413H234.503V47.8571H229.5V24.2413H220.894Z" fill="#084886"/>
<path d="M243.283 47.8571V26.974H248.055V30.4545H248.273C248.653 29.2491 249.306 28.32 250.231 27.6674C251.164 27.0057 252.229 26.6749 253.426 26.6749C253.697 26.6749 254.001 26.6885 254.336 26.7157C254.681 26.7338 254.966 26.7656 255.193 26.8109V31.3383C254.985 31.2658 254.654 31.2023 254.201 31.1479C253.756 31.0845 253.326 31.0528 252.909 31.0528C252.012 31.0528 251.205 31.2476 250.489 31.6374C249.782 32.0181 249.224 32.5483 248.817 33.2281C248.409 33.9079 248.205 34.6919 248.205 35.5802V47.8571H243.283Z" fill="#084886"/>
<path d="M262.375 48.2786C261.052 48.2786 259.86 48.0429 258.8 47.5716C257.748 47.0912 256.914 46.3843 256.298 45.4507C255.691 44.5171 255.387 43.366 255.387 41.9974C255.387 40.8191 255.605 39.8447 256.04 39.0743C256.475 38.3038 257.069 37.6875 257.821 37.2252C258.573 36.763 259.421 36.414 260.363 36.1784C261.315 35.9336 262.298 35.7569 263.314 35.6481C264.537 35.5212 265.53 35.4079 266.291 35.3082C267.052 35.1995 267.605 35.0363 267.95 34.8188C268.303 34.5922 268.48 34.2432 268.48 33.7719V33.6903C268.48 32.6661 268.176 31.873 267.569 31.3111C266.962 30.7491 266.087 30.4681 264.945 30.4681C263.74 30.4681 262.783 30.731 262.076 31.2567C261.378 31.7824 260.907 32.4033 260.662 33.1193L256.067 32.4667C256.43 31.1978 257.028 30.1373 257.862 29.2853C258.695 28.4242 259.715 27.7807 260.921 27.3547C262.126 26.9196 263.459 26.7021 264.918 26.7021C265.924 26.7021 266.925 26.8199 267.922 27.0556C268.919 27.2913 269.83 27.681 270.655 28.2248C271.48 28.7596 272.142 29.4892 272.64 30.4138C273.148 31.3383 273.402 32.4939 273.402 33.8807V47.8571H268.67V44.9884H268.507C268.208 45.5685 267.787 46.1124 267.243 46.6199C266.708 47.1184 266.033 47.5218 265.217 47.8299C264.41 48.1291 263.463 48.2786 262.375 48.2786ZM263.653 44.6621C264.641 44.6621 265.498 44.4673 266.223 44.0775C266.948 43.6787 267.506 43.153 267.895 42.5004C268.294 41.8478 268.493 41.1363 268.493 40.3659V37.905C268.339 38.0319 268.077 38.1498 267.705 38.2585C267.342 38.3673 266.935 38.4625 266.481 38.544C266.028 38.6256 265.579 38.6981 265.135 38.7616C264.691 38.825 264.306 38.8794 263.98 38.9247C263.246 39.0244 262.588 39.1876 262.008 39.4142C261.428 39.6408 260.97 39.958 260.635 40.3659C260.3 40.7647 260.132 41.2813 260.132 41.9158C260.132 42.8222 260.463 43.5065 261.125 43.9687C261.786 44.431 262.629 44.6621 263.653 44.6621Z" fill="#084886"/>
<path d="M285.737 48.265C283.652 48.265 281.862 47.8073 280.366 46.8918C278.88 45.9764 277.733 44.712 276.927 43.0986C276.129 41.4762 275.73 39.609 275.73 37.4972C275.73 35.3762 276.138 33.5045 276.954 31.8821C277.77 30.2506 278.921 28.9817 280.407 28.0753C281.903 27.1598 283.67 26.7021 285.71 26.7021C287.405 26.7021 288.905 27.0148 290.21 27.6402C291.524 28.2566 292.571 29.1312 293.35 30.2642C294.13 31.3881 294.574 32.7024 294.683 34.207H289.979C289.788 33.2009 289.335 32.3625 288.619 31.6918C287.912 31.012 286.965 30.6721 285.778 30.6721C284.771 30.6721 283.888 30.944 283.126 31.4878C282.365 32.0226 281.771 32.793 281.345 33.7991C280.928 34.8052 280.72 36.0107 280.72 37.4156C280.72 38.8386 280.928 40.0622 281.345 41.0864C281.762 42.1016 282.347 42.8856 283.099 43.4385C283.861 43.9823 284.753 44.2543 285.778 44.2543C286.503 44.2543 287.151 44.1183 287.722 43.8464C288.302 43.5654 288.787 43.1621 289.176 42.6364C289.566 42.1107 289.834 41.4717 289.979 40.7194H294.683C294.565 42.1968 294.13 43.5065 293.378 44.6485C292.625 45.7815 291.601 46.6698 290.305 47.3133C289.009 47.9478 287.486 48.265 285.737 48.265Z" fill="#084886"/>
<path d="M301.488 41.304L301.474 35.3626H302.263L309.768 26.974H315.519L306.287 37.2524H305.267L301.488 41.304ZM297.001 47.8571V20.013H301.923V47.8571H297.001ZM310.108 47.8571L303.31 38.3537L306.627 34.8868L315.995 47.8571H310.108Z" fill="#084886"/>
<path d="M0 3.19048C0 1.42842 1.42842 0 3.19048 0H63.8095C65.5716 0 67 1.42842 67 3.19048V63.8095C67 65.5716 65.5716 67 63.8095 67H3.19048C1.42842 67 0 65.5716 0 63.8095V3.19048Z" fill="#084886"/>
<path d="M0 3.19048C0 1.42842 1.42842 0 3.19048 0H63.8095C65.5716 0 67 1.42842 67 3.19048V63.8095C67 65.5716 65.5716 67 63.8095 67H3.19048C1.42842 67 0 65.5716 0 63.8095V3.19048Z" fill="#084886"/>
<mask id="mask0_4_73" style="mask-type:luminance" maskUnits="userSpaceOnUse" x="9" y="9" width="49" height="49">
<path d="M9.57143 9.57143H57.4286V57.4286H9.57143V9.57143Z" fill="white"/>
</mask>
<g mask="url(#mask0_4_73)">
<path fill-rule="evenodd" clip-rule="evenodd" d="M14.4939 27.9258C15.1795 28.9669 16.7245 28.9801 17.4263 27.947L17.4263 27.947C18.2241 26.7724 19.4419 24.8512 20.4627 22.6894C21.476 20.5437 22.3333 18.0828 22.3333 15.8497C22.3333 12.3823 19.4765 9.57144 15.9524 9.57144C12.4283 9.57144 9.57141 12.3823 9.57141 15.8497C9.57141 17.9718 10.4397 20.4175 11.4553 22.5732C12.4808 24.7496 13.7017 26.7227 14.4939 27.9258L14.4939 27.9258ZM16.1752 27.1244C16.0755 27.2711 15.8554 27.2705 15.7567 27.1207C14.9846 25.9482 13.8048 24.0395 12.8205 21.9505C11.8265 19.8408 11.0762 17.6375 11.0762 15.8497C11.0762 13.2 13.2593 11.052 15.9524 11.052C18.6455 11.052 20.8286 13.1999 20.8286 15.8497C20.8286 17.7574 20.0819 19.9821 19.0981 22.0655C18.1219 24.1327 16.9496 25.9842 16.1753 27.1243" fill="#A2A2A2"/>
<path fill-rule="evenodd" clip-rule="evenodd" d="M12.7619 15.9524C12.7619 17.7145 14.1904 19.1429 15.9524 19.1429C17.7143 19.1429 19.1428 17.7145 19.1428 15.9524C19.1428 14.1904 17.7144 12.7619 15.9524 12.7619C15.5323 12.7619 15.1918 13.1024 15.1918 13.5224C15.1918 13.9425 15.5323 14.283 15.9524 14.283C16.8743 14.283 17.6218 15.0305 17.6218 15.9524C17.6218 16.8744 16.8744 17.6218 15.9524 17.6218C15.0304 17.6218 14.2829 16.8744 14.2829 15.9524C14.2829 15.5324 13.9424 15.1919 13.5224 15.1919C13.1024 15.1919 12.7619 15.5324 12.7619 15.9524Z" fill="#A2A2A2"/>
<path fill-rule="evenodd" clip-rule="evenodd" d="M51.2703 55.8387C51.1707 55.9854 50.9505 55.9848 50.8519 55.8351L50.8519 55.835C50.0797 54.6625 48.8999 52.7539 47.9157 50.6649C46.9217 48.5552 46.1714 46.3519 46.1714 44.5641C46.1714 41.9144 48.3545 39.7662 51.0476 39.7662C53.7405 39.7662 55.9238 41.9144 55.9238 44.5641C55.9238 46.2567 55.335 48.2036 54.5082 50.0874C54.3435 50.4627 54.5192 50.8984 54.9007 51.0605C55.2821 51.2226 55.7249 51.0497 55.8897 50.6743C56.748 48.7187 57.4286 46.5535 57.4286 44.5641C57.4286 41.0967 54.5716 38.2857 51.0476 38.2857C47.5234 38.2857 44.6667 41.0968 44.6667 44.5641C44.6667 46.6862 45.5349 49.1319 46.5505 51.2876C47.5759 53.4639 48.7968 55.4371 49.589 56.6401C50.2746 57.6813 51.8198 57.6943 52.5213 56.6614C52.9432 56.0403 53.4806 55.2124 54.0432 54.254C54.2511 53.9 54.1279 53.4472 53.7681 53.2427C53.4083 53.0382 52.9481 53.1594 52.7403 53.5134C52.1968 54.439 51.6775 55.2393 51.2703 55.8386L51.2703 55.8387Z" fill="#A2A2A2"/>
<path fill-rule="evenodd" clip-rule="evenodd" d="M47.8571 44.6667C47.8571 46.4288 49.2856 47.8571 51.0476 47.8571C52.8096 47.8571 54.2381 46.4288 54.2381 44.6667C54.2381 42.9047 52.8096 41.4762 51.0476 41.4762C49.2856 41.4762 47.8571 42.9047 47.8571 44.6667ZM51.0476 46.3361C50.1256 46.3361 49.3782 45.5886 49.3782 44.6667C49.3782 43.7448 50.1256 42.9973 51.0476 42.9973C51.9695 42.9973 52.717 43.7448 52.717 44.6667C52.717 45.5886 51.9696 46.3361 51.0476 46.3361Z" fill="#A2A2A2"/>
<path fill-rule="evenodd" clip-rule="evenodd" d="M17.4826 52.6037C13.8595 52.6037 10.9223 49.0501 10.9223 44.6666C10.9223 40.2832 13.8594 36.7297 17.4826 36.7297H19.7474C20.1204 36.7297 20.4229 36.3638 20.4229 35.9125C20.4229 35.4611 20.1204 35.0952 19.7474 35.0952H17.4826C13.1133 35.0952 9.57141 39.3806 9.57141 44.6666C9.57141 49.9528 13.1133 54.2381 17.4826 54.2381H43.9912C44.3642 54.2381 44.6666 53.8722 44.6666 53.4209C44.6666 52.9696 44.3642 52.6037 43.9912 52.6037H17.4826Z" fill="#A2A2A2"/>
<path fill-rule="evenodd" clip-rule="evenodd" d="M39.678 37.5855C39.678 37.9722 39.9956 38.2857 40.3874 38.2857H42.9666C47.4296 38.2857 51.0476 34.7147 51.0476 30.3095C51.0476 25.9044 47.4296 22.3333 42.9666 22.3333H23.0427C22.6509 22.3333 22.3333 22.6468 22.3333 23.0336C22.3333 23.4203 22.6509 23.7338 23.0427 23.7338H42.9666C46.646 23.7338 49.6287 26.6778 49.6287 30.3095C49.6287 33.9412 46.646 36.8852 42.9666 36.8852H40.3874C39.9956 36.8852 39.678 37.1988 39.678 37.5855Z" fill="#A2A2A2"/>
<path fill-rule="evenodd" clip-rule="evenodd" d="M22.3333 43.2237C22.3333 44.0206 22.9793 44.6667 23.7763 44.6667H36.8427C37.6399 44.6667 38.2857 44.0205 38.2857 43.2237V30.1573C38.2857 29.3605 37.6399 28.7143 36.8427 28.7143H23.7763C22.9793 28.7143 22.3333 29.3604 22.3333 30.1573V43.2237ZM23.9383 43.0618V30.3191H36.6808V43.0618H23.9383Z" fill="#A2A2A2"/>
<path fill-rule="evenodd" clip-rule="evenodd" d="M25.5238 34.4195C25.5238 34.7927 25.883 35.0952 26.3262 35.0952H31.1024C31.5455 35.0952 31.9047 34.7927 31.9047 34.4195V29.39C31.9047 29.0168 31.5455 28.7143 31.1024 28.7143H26.3262C25.883 28.7143 25.5238 29.0168 25.5238 29.39V34.4195ZM27.1285 33.7438V30.0658H30.3V33.7438H27.1285Z" fill="#A2A2A2"/>
</g>
</svg>
